# Blender v2.80 (sub 75) OBJ File: ''
# www.blender.org
mtllib untitled.mtl
o Cube
v 1.000000 2.000000 -1.000000
v 1.000000 0.000000 -1.000000
v 1.000000 2.000000 1.000000
v -1.000000 2.000000 -1.000000
v -1.000000 0.000000 -1.000000
v -1.000000 2.000000 1.000000
v -1.000000 0.000000 1.000000
v -1.000000 0.000000 -1.000000
v -1.000000 2.000000 -1.000000
v -1.000000 1.992207 -1.000000
v -1.000000 0.000000 -0.576923
v -1.000000 2.000000 -0.576923
v -1.000000 2.000000 -0.576923
v -1.000000 2.000000 -1.000000
v -1.000000 0.000000 0.510397
v -1.000000 1.366570 -0.576923
v -1.000000 0.000000 -0.589913
v -1.000000 1.366571 0.510397
v -0.657767 0.000000 -0.576923
v -0.657767 0.000000 0.510397
v -0.657767 0.000000 -0.589913
v -0.657767 0.000000 -1.000000
v -0.657767 0.000000 1.000000
v -0.657767 0.000000 -1.000000
v -0.657768 1.276651 -1.000000
v -0.657768 1.287184 -1.000000
v -0.657768 1.276651 0.510397
v -0.657768 1.287184 0.510397
v -0.657768 1.276651 1.000000
v -0.657768 1.287184 1.000000
v -0.540063 3.160010 -0.576923
v -0.540063 2.276850 -0.576923
v -0.540063 3.160010 -1.000000
v -0.540063 2.276850 -1.000000
v -0.540064 3.160010 -1.000000
v -0.540063 2.276850 -1.000000
v -0.105989 3.990318 -0.576923
v -1.000000 3.096307 -0.576923
v -0.448112 3.922266 -0.576923
v -0.738150 3.728468 -0.576923
v -0.931947 3.438431 -0.576923
v -1.000000 3.096307 -1.000000
v -0.105989 3.990318 -1.000000
v -0.931947 3.438431 -1.000000
v -0.738150 3.728468 -1.000000
v -0.448112 3.922266 -1.000000
v -1.000000 0.000000 0.510397
v -1.000000 0.000000 0.510397
v -1.000000 0.000000 1.000000
v -1.000000 0.000000 1.000000
v -1.000000 0.000000 -1.000000
v -1.000000 0.000000 -1.000000
v -1.000000 2.000000 1.000000
v -1.000000 2.000000 1.000000
v -1.000000 2.000000 1.000000
v -1.000000 2.000000 -1.000000
v -1.000000 2.000000 -1.000000
v -1.000000 2.000000 -1.000000
v -1.000000 2.000000 -1.000000
v -1.000000 2.000000 -0.576923
v -1.000000 2.000000 -0.576923
v -1.000000 2.000000 -0.576923
v -1.000000 2.000000 -0.576923
v -0.657768 1.276651 0.510397
v -0.657768 1.276651 0.510397
v -0.657768 1.276651 0.510397
v -0.657768 1.287184 1.000000
v -0.657768 1.287184 1.000000
v -0.657767 0.000000 -1.000000
v -1.000000 0.000000 -1.000000
v -1.000000 2.000000 -1.000000
v -1.000000 1.992207 -1.000000
v -1.000000 0.000000 -0.589913
v -1.000000 0.000000 -0.589913
v -1.000000 0.000000 -0.576923
v -1.000000 0.000000 -0.576923
v -1.000000 1.366570 -0.576923
v -1.000000 1.366570 -0.576923
v -1.000000 1.366570 -0.576923
v -1.000000 1.366570 -0.576923
v -1.000000 2.000000 -0.576923
v -1.000000 2.000000 -0.576923
v -1.000000 2.000000 -0.576923
v -1.000000 2.000000 -1.000000
v -1.000000 2.000000 -1.000000
v -1.000000 2.000000 -1.000000
v -1.000000 1.366571 0.510397
v -1.000000 1.366571 0.510397
v -1.000000 1.366571 0.510397
v -0.657768 1.276651 1.000000
v -0.657768 1.276651 1.000000
v -0.657768 1.276651 1.000000
v -0.540063 3.160010 -0.576923
v -0.540063 3.160010 -0.576923
v -0.540064 3.160010 -1.000000
v -0.657767 0.000000 0.510397
v -0.657767 0.000000 0.510397
v -0.657767 0.000000 -0.589913
v -0.657768 1.276651 -1.000000
v -0.657768 1.276651 -1.000000
v -0.657768 1.276651 -1.000000
v -0.657768 1.276651 -1.000000
v -0.657767 0.000000 1.000000
v -0.657767 0.000000 1.000000
v -0.657768 1.287184 -1.000000
v -0.657768 1.287184 0.510397
v -0.540063 2.276850 -0.576923
v -0.540063 2.276850 -0.576923
v -0.540063 2.276850 -1.000000
v -0.448112 3.922266 -0.576923
v -0.448112 3.922266 -0.576923
v -0.105989 3.990318 -0.576923
v -0.105989 3.990318 -0.576923
v -0.105989 3.990318 -1.000000
v -0.105989 3.990318 -1.000000
v -0.448112 3.922266 -1.000000
v -0.448112 3.922266 -1.000000
v -0.738150 3.728468 -0.576923
v -0.738150 3.728468 -0.576923
v -0.738150 3.728468 -1.000000
v -0.738150 3.728468 -1.000000
v -0.931947 3.438431 -0.576923
v -0.931947 3.438431 -0.576923
v -0.931947 3.438431 -1.000000
v -0.931947 3.438431 -1.000000
v -1.000000 3.096307 -0.576923
v -1.000000 3.096307 -0.576923
v -1.000000 3.096307 -1.000000
v -1.000000 3.096307 -1.000000
v -1.000000 2.000000 -1.000000
v -1.000000 0.000000 -1.000000
v -1.000000 2.000000 1.000000
v 1.000000 2.000000 -1.000000
v 1.000000 0.000000 -1.000000
v 1.000000 2.000000 1.000000
v 1.000000 0.000000 1.000000
v 0.000000 0.000000 -1.000000
v 0.000000 2.000000 1.000000
v 0.000000 2.000000 -1.000000
v 0.000000 0.000000 -1.000000
v 1.000000 0.000000 -1.000000
v 1.000000 2.000000 -1.000000
v 0.000000 2.000000 -1.000000
v 0.000000 1.992207 -1.000000
v 1.000000 1.992207 -1.000000
v 1.000000 0.000000 -0.576923
v 1.000000 2.000000 -0.576923
v 0.000000 2.000000 -0.576923
v 0.000000 0.000000 -0.576923
v 1.000000 2.000000 -0.576923
v 1.000000 2.000000 -1.000000
v 0.000000 2.000000 -1.000000
v 0.000000 2.000000 -0.576923
v 0.000000 3.990318 -1.000000
v 0.000000 3.990318 -0.576923
v 1.000000 0.000000 0.510397
v 0.000000 1.366571 -0.576923
v 1.000000 1.366570 -0.576923
v 1.000000 0.000000 -0.589913
v 0.000000 0.000000 -0.589913
v 1.000000 1.366571 0.510397
v 0.000000 1.366571 0.510397
v 0.000000 3.160010 -1.000000
v 0.000000 1.355984 -0.589914
v 0.000000 1.276651 -1.000000
v 0.000000 1.276651 -0.589914
v 0.000000 1.276651 -1.000000
v 0.657767 0.000000 -0.576923
v 0.000000 1.276651 1.000000
v 0.657767 0.000000 0.510397
v 0.000000 1.276651 -0.576923
v 0.000000 1.276651 -1.000000
v 0.657767 0.000000 -0.589913
v 0.000000 1.276651 0.510397
v 0.657767 0.000000 -1.000000
v 0.657767 0.000000 1.000000
v 0.657767 0.000000 -1.000000
v 0.657768 1.276651 -1.000000
v 0.657768 1.287184 -1.000000
v 0.657768 1.276651 0.510397
v 0.657768 1.287184 0.510397
v 0.657768 1.276651 1.000000
v 0.657768 1.287184 1.000000
v 0.000000 2.276850 -1.000000
v 0.000000 2.276850 -0.576923
v 0.000000 3.160010 -0.576923
v 0.000000 3.160010 -1.000000
v 0.000000 2.276850 -1.000000
v 0.540063 3.160010 -0.576923
v 0.540063 2.276850 -0.576923
v 0.540063 3.160010 -1.000000
v 0.540063 2.276850 -1.000000
v 0.540064 3.160010 -1.000000
v 0.540063 2.276850 -1.000000
v 0.105989 3.990318 -0.576923
v 1.000000 3.096307 -0.576923
v 0.448112 3.922266 -0.576923
v 0.738150 3.728468 -0.576923
v 0.931947 3.438431 -0.576923
v 1.000000 3.096307 -1.000000
v 0.105989 3.990318 -1.000000
v 0.931947 3.438431 -1.000000
v 0.738150 3.728468 -1.000000
v 0.448112 3.922266 -1.000000
v 1.000000 0.000000 0.510397
v 1.000000 0.000000 0.510397
v 1.000000 0.000000 1.000000
v 1.000000 0.000000 1.000000
v 1.000000 0.000000 -1.000000
v 1.000000 0.000000 -1.000000
v 1.000000 2.000000 1.000000
v 1.000000 2.000000 1.000000
v 1.000000 2.000000 1.000000
v 1.000000 2.000000 -1.000000
v 1.000000 2.000000 -1.000000
v 1.000000 2.000000 -1.000000
v 1.000000 2.000000 -1.000000
v 0.000000 2.000000 1.000000
v 0.000000 2.000000 1.000000
v 1.000000 2.000000 -0.576923
v 1.000000 2.000000 -0.576923
v 1.000000 2.000000 -0.576923
v 1.000000 2.000000 -0.576923
v 0.000000 2.000000 -1.000000
v 0.000000 2.000000 -1.000000
v 0.000000 2.000000 -1.000000
v 0.000000 2.000000 -1.000000
v 0.000000 2.000000 -0.576923
v 0.000000 2.000000 -0.576923
v 0.000000 2.000000 -0.576923
v 0.000000 2.000000 -0.576923
v 0.657768 1.276651 0.510397
v 0.657768 1.276651 0.510397
v 0.657768 1.276651 0.510397
v 0.657768 1.287184 1.000000
v 0.657768 1.287184 1.000000
v 0.657767 0.000000 -1.000000
v 1.000000 0.000000 -1.000000
v 1.000000 2.000000 -1.000000
v 0.000000 2.000000 -1.000000
v 1.000000 1.992207 -1.000000
v 0.000000 1.276651 -1.000000
v 1.000000 0.000000 -0.589913
v 1.000000 0.000000 -0.589913
v 1.000000 0.000000 -0.576923
v 1.000000 0.000000 -0.576923
v 0.000000 1.366571 -0.576923
v 0.000000 1.366571 -0.576923
v 0.000000 1.366571 -0.576923
v 1.000000 1.366570 -0.576923
v 1.000000 1.366570 -0.576923
v 1.000000 1.366570 -0.576923
v 1.000000 1.366570 -0.576923
v 1.000000 2.000000 -0.576923
v 1.000000 2.000000 -0.576923
v 1.000000 2.000000 -0.576923
v 1.000000 2.000000 -1.000000
v 1.000000 2.000000 -1.000000
v 1.000000 2.000000 -1.000000
v 0.000000 2.000000 -1.000000
v 0.000000 2.000000 -1.000000
v 0.000000 2.000000 -1.000000
v 0.000000 2.000000 -0.576923
v 0.000000 2.000000 -0.576923
v 0.000000 2.000000 -0.576923
v 0.000000 3.990318 -0.576923
v 0.000000 3.990318 -0.576923
v 0.000000 3.990318 -1.000000
v 0.000000 3.990318 -1.000000
v 0.000000 3.160010 -0.576923
v 0.000000 3.160010 -0.576923
v 0.000000 2.276850 -1.000000
v 0.000000 1.276651 -0.576923
v 0.000000 1.276651 -0.576923
v 1.000000 1.366571 0.510397
v 1.000000 1.366571 0.510397
v 1.000000 1.366571 0.510397
v 0.000000 1.366571 0.510397
v 0.000000 1.366571 0.510397
v 0.657768 1.276651 1.000000
v 0.657768 1.276651 1.000000
v 0.657768 1.276651 1.000000
v 0.540063 3.160010 -0.576923
v 0.540063 3.160010 -0.576923
v 0.540064 3.160010 -1.000000
v 0.000000 1.276651 -0.589914
v 0.000000 1.355984 -0.589914
v 0.657767 0.000000 0.510397
v 0.657767 0.000000 0.510397
v 0.657767 0.000000 -0.589913
v 0.657768 1.276651 -1.000000
v 0.657768 1.276651 -1.000000
v 0.657768 1.276651 -1.000000
v 0.657768 1.276651 -1.000000
v 0.000000 1.276651 1.000000
v 0.000000 1.276651 1.000000
v 0.000000 1.276651 1.000000
v 0.000000 1.276651 0.510397
v 0.000000 1.276651 0.510397
v 0.657767 0.000000 1.000000
v 0.657767 0.000000 1.000000
v 0.657768 1.287184 -1.000000
v 0.657768 1.287184 0.510397
v 0.000000 2.276850 -0.576923
v 0.000000 2.276850 -0.576923
v 0.000000 3.160010 -1.000000
v 0.540063 2.276850 -0.576923
v 0.540063 2.276850 -0.576923
v 0.540063 2.276850 -1.000000
v 0.448112 3.922266 -0.576923
v 0.448112 3.922266 -0.576923
v 0.105989 3.990318 -0.576923
v 0.105989 3.990318 -0.576923
v 0.105989 3.990318 -1.000000
v 0.105989 3.990318 -1.000000
v 0.448112 3.922266 -1.000000
v 0.448112 3.922266 -1.000000
v 0.738150 3.728468 -0.576923
v 0.738150 3.728468 -0.576923
v 0.738150 3.728468 -1.000000
v 0.738150 3.728468 -1.000000
v 0.931947 3.438431 -0.576923
v 0.931947 3.438431 -0.576923
v 0.931947 3.438431 -1.000000
v 0.931947 3.438431 -1.000000
v 1.000000 3.096307 -0.576923
v 1.000000 3.096307 -0.576923
v 1.000000 3.096307 -1.000000
v 1.000000 3.096307 -1.000000
vt 0.375000 0.697115
vt 0.417779 0.750000
vt 0.545821 0.697115
vt 0.375000 0.750000
vt 0.625000 0.750000
vt 0.375000 0.750000
vt 0.240321 0.266615
vt 0.417779 0.750000
vt 0.255668 0.293202
vt 0.417779 0.750000
vt 0.500000 0.750000
vt 0.255668 0.293202
vt 0.625000 0.750000
vt 0.000000 0.000000
vt 0.625000 0.750000
vt 0.132212 0.079327
vt 0.625000 0.500000
vt 0.625000 0.375000
vt 0.417779 0.750000
vt 0.375000 0.801261
vt 0.375000 0.750000
vt 0.625000 0.697115
vt 0.545821 0.697115
vt 0.545821 0.561200
vt 0.337540 0.405048
vt 0.337540 0.405048
vt 0.625000 0.750000
vt 0.625000 0.697115
vt 0.132212 0.079327
vt 0.625000 0.697115
vt 0.000000 0.000000
vt 0.625000 0.750000
vt 0.000000 0.000000
vt 0.625000 0.750000
vt 0.625000 0.697115
vt 0.625000 0.750000
vt 0.398349 0.412972
vt 0.132212 0.079327
vt 0.353036 0.356165
vt 0.000000 0.000000
vt 0.184442 0.144806
vt 0.132212 0.079327
vt 0.545821 0.697115
vt 0.454913 0.345292
vt 0.545821 0.561200
vt 0.000000 0.000000
vt 0.398349 0.412972
vt 0.132212 0.079327
vt 0.417779 0.938800
vt 0.375000 1.000000
vt 0.375000 0.938800
vt 0.417779 0.801261
vt 0.375000 0.802885
vt 0.375000 0.801261
vt 0.417779 0.750000
vt 0.375000 0.750000
vt 0.500000 0.750000
vt 0.417779 0.750000
vt 0.417779 0.750000
vt 0.375000 0.750000
vt 0.510107 0.514566
vt 0.545821 0.561200
vt 0.454913 0.345292
vt 0.509457 0.518143
vt 0.417779 0.938800
vt 0.375000 0.938800
vt 0.534581 0.457221
vt 0.375000 0.500000
vt 0.375000 0.457221
vt 0.625000 0.500000
vt 0.535898 0.457221
vt 0.625000 0.375000
vt 0.535898 0.457221
vt 0.534581 0.457221
vt 0.534581 0.375000
vt 0.509457 0.518143
vt 0.534581 0.375000
vt 0.535898 0.457221
vt 0.417779 0.938800
vt 0.534581 0.457221
vt 0.417779 1.000000
vt 0.375000 0.750000
vt 0.375000 0.698739
vt 0.545821 0.697115
vt 0.000000 0.000000
vt 0.398349 0.412972
vt 0.337540 0.405048
vt 0.398349 0.412972
vt 0.337540 0.405048
vt 0.337540 0.405048
vt 0.066243 0.079492
vt 0.353036 0.356165
vt 0.184442 0.144806
vt 0.280070 0.336084
vt 0.581988 0.643193
vt 0.353036 0.356165
vt 0.570448 0.684538
vt 0.613822 0.683101
vt 0.581988 0.643193
vt 0.610822 0.732987
vt 0.625000 0.697115
vt 0.613822 0.683101
vt 0.625000 0.697115
vt 0.625000 0.750000
vt 0.625000 0.750000
vt 0.375000 0.697115
vt 0.417779 0.750000
vt 0.417779 0.750000
vt 0.375000 0.750000
vt 0.625000 0.750000
vt 0.625000 0.750000
vt 0.132212 0.079327
vt 0.000000 0.000000
vt 0.000000 0.000000
vt 0.239706 0.268947
vt 0.255668 0.293202
vt 0.240321 0.266615
vt 0.417779 0.750000
vt 0.417779 0.750000
vt 0.625000 0.750000
vt 0.000000 0.000000
vt 0.454913 0.345292
vt 0.451668 0.353287
vt 0.534581 0.375000
vt 0.625000 0.500000
vt 0.375000 0.801261
vt 0.417779 0.750000
vt 0.375000 0.750000
vt 0.545821 0.561200
vt 0.625000 0.697115
vt 0.625000 0.500000
vt 0.337540 0.405048
vt 0.000000 0.000000
vt 0.280070 0.336084
vt 0.625000 0.697115
vt 0.132212 0.079327
vt 0.625000 0.750000
vt 0.625000 0.750000
vt 0.625000 0.750000
vt 0.625000 0.697115
vt 0.625000 0.697115
vt 0.398349 0.412972
vt 0.398349 0.412972
vt 0.625000 0.697115
vt 0.132212 0.079327
vt 0.000000 0.000000
vt 0.000000 0.000000
vt 0.184442 0.144806
vt 0.545821 0.697115
vt 0.545821 0.561200
vt 0.398349 0.412972
vt 0.337540 0.405048
vt 0.180837 0.271256
vt 0.239706 0.268947
vt 0.000000 0.000000
vt 0.375000 1.000000
vt 0.417779 0.938800
vt 0.375000 0.938800
vt 0.375000 0.802885
vt 0.417779 0.801261
vt 0.375000 0.801261
vt 0.375000 0.750000
vt 0.417779 0.750000
vt 0.375000 0.750000
vt 0.417779 0.750000
vt 0.417779 0.750000
vt 0.545821 0.561200
vt 0.510107 0.514566
vt 0.375000 0.938800
vt 0.417779 0.938800
vt 0.509457 0.518143
vt 0.375000 0.500000
vt 0.534581 0.457221
vt 0.375000 0.457221
vt 0.535898 0.457221
vt 0.534581 0.457221
vt 0.625000 0.500000
vt 0.535898 0.457221
vt 0.534581 0.457221
vt 0.509457 0.518143
vt 0.535898 0.457221
vt 0.534581 0.457221
vt 0.417779 0.938800
vt 0.417779 1.000000
vt 0.625000 0.750000
vt 0.625000 0.697115
vt 0.545821 0.697115
vt 0.132212 0.079327
vt 0.000000 0.000000
vt 0.000000 0.000000
vt 0.398349 0.412972
vt 0.337540 0.405048
vt 0.337540 0.405048
vt 0.398349 0.412972
vt 0.337540 0.405048
vt 0.353036 0.356165
vt 0.066243 0.079492
vt 0.184442 0.144806
vt 0.581988 0.643193
vt 0.280070 0.336084
vt 0.353036 0.356165
vt 0.613822 0.683101
vt 0.570448 0.684538
vt 0.581988 0.643193
vt 0.625000 0.697115
vt 0.610822 0.732987
vt 0.613822 0.683101
vt 0.625000 0.750000
vt 0.625000 0.697115
vt 0.625000 0.750000
vt 0.417779 0.750000
vt 0.625000 0.750000
vt 0.545821 0.697115
vt 0.625000 0.697115
vt 0.417779 0.801261
vt 0.375000 0.561200
vt 0.375000 0.500000
vt 0.625000 0.500000
vt 0.000000 0.000000
vt 0.000000 0.000000
vt 0.625000 0.750000
vt 0.610822 0.732987
vt 0.570448 0.684538
vt 0.280070 0.336084
vt 0.066243 0.079492
vt 0.000000 0.000000
vt 0.625000 0.750000
vt 0.625000 0.697115
vt 0.625000 0.697115
vt 0.132212 0.079327
vt 0.398349 0.412972
vt 0.132212 0.079327
vt 0.613822 0.683101
vt 0.625000 0.697115
vt 0.581988 0.643193
vt 0.132212 0.079327
vt 0.184442 0.144806
vt 0.066243 0.079492
vt 0.240321 0.266615
vt 0.337540 0.405048
vt 0.417779 1.000000
vt 0.417779 0.802885
vt 0.500000 0.750000
vt 0.417779 0.750000
vt 0.375000 0.750000
vt 0.417779 0.750000
vt 0.457879 0.384344
vt 0.509457 0.518143
vt 0.545821 0.561200
vt 0.510107 0.514566
vt 0.625000 0.500000
vt 0.534581 0.457221
vt 0.534581 0.375000
vt 0.457879 0.384344
vt 0.509457 0.518143
vt 0.375000 0.697115
vt 0.625000 0.697115
vt 0.625000 0.750000
vt 0.132212 0.079327
vt 0.398349 0.412972
vt 0.280070 0.336084
vt 0.570448 0.684538
vt 0.610822 0.732987
vt 0.625000 0.750000
vt 0.625000 0.697115
vt 0.545821 0.697115
vt 0.375000 0.750000
vt 0.132212 0.079327
vt 0.132212 0.079327
vt 0.000000 0.000000
vt 0.253435 0.292593
vt 0.545821 0.697115
vt 0.625000 0.750000
vt 0.625000 0.375000
vt 0.132212 0.079327
vt 0.240321 0.266615
vt 0.625000 0.697115
vt 0.417779 0.801261
vt 0.375000 0.500000
vt 0.375000 0.561200
vt 0.545821 0.697115
vt 0.625000 0.750000
vt 0.337540 0.405048
vt 0.610822 0.732987
vt 0.625000 0.750000
vt 0.570448 0.684538
vt 0.066243 0.079492
vt 0.625000 0.697115
vt 0.625000 0.750000
vt 0.625000 0.697115
vt 0.613822 0.683101
vt 0.581988 0.643193
vt 0.353036 0.356165
vt 0.184442 0.144806
vt 0.132212 0.079327
vt 0.066243 0.079492
vt 0.253435 0.292593
vt 0.417779 1.000000
vt 0.417779 0.802885
vt 0.417779 0.750000
vt 0.417779 0.750000
vt 0.375000 0.750000
vt 0.509457 0.518143
vt 0.510107 0.514566
vt 0.545821 0.561200
vt 0.625000 0.500000
vt 0.509457 0.518143
vt 0.375000 0.697115
vt 0.375000 0.698739
vt 0.375000 0.750000
vt 0.132212 0.079327
vt 0.398349 0.412972
vt 0.280070 0.336084
vt 0.570448 0.684538
vt 0.610822 0.732987
vt 0.625000 0.750000
vt 0.625000 0.697115
vn 0.7775 0.0000 0.6289
vn 0.0000 0.0000 1.0000
vn 0.0000 -0.3894 0.9210
vn -0.0368 -0.9643 0.2622
vn 0.0000 -1.0000 0.0000
vn 0.0000 1.0000 0.0000
vn -1.0000 0.0000 0.0000
vn 0.0000 0.0000 -1.0000
vn -0.0095 -0.9998 0.0127
vn 0.0000 -0.9999 0.0088
vn -0.0160 -0.9996 0.0215
vn 1.0000 0.0000 0.0000
vn -0.1951 0.9808 0.0000
vn -0.5556 0.8314 0.0000
vn -0.8314 0.5556 0.0000
vn -0.9808 0.1951 0.0000
vn -0.7775 0.0000 0.6289
vn 0.0368 -0.9643 0.2622
vn 0.0095 -0.9998 0.0127
vn 0.0160 -0.9996 0.0215
vn 0.1951 0.9808 0.0000
vn 0.5556 0.8314 0.0000
vn 0.8314 0.5556 0.0000
vn 0.9808 0.1951 0.0000
vn 0.0000 -0.9781 0.2079
usemtl Material
s 1
f 76/1/1 100/2/1 77/3/1
f 52/4/2 71/5/2 8/6/2
f 249/7/3 99/8/4 274/9/2
f 101/10/5 165/11/5 171/12/5
f 58/13/2 240/14/2 9/15/2
f 231/16/6 54/17/6 218/18/6
f 24/19/5 74/20/5 51/21/5
f 63/22/7 78/23/7 87/24/7
f 33/25/8 34/26/8 128/27/8
f 62/28/2 264/29/2 82/30/2
f 139/31/2 86/32/2 262/33/2
f 57/34/2 81/35/2 84/36/2
f 94/37/2 270/38/2 110/39/2
f 268/40/6 113/41/6 266/42/6
f 16/43/5 279/44/5 88/45/5
f 184/46/6 107/47/6 305/48/6
f 96/49/5 50/50/5 48/51/5
f 21/52/5 75/53/5 73/54/5
f 105/55/8 72/56/8 144/57/8
f 25/58/8 69/59/8 70/60/8
f 106/61/8 89/62/8 162/63/8
f 66/64/8 97/65/8 15/66/8
f 91/67/2 7/68/2 104/69/2
f 6/70/2 68/71/2 138/72/2
f 30/73/2 92/74/2 296/75/2
f 64/76/9 169/77/10 67/78/11
f 20/79/12 90/80/12 23/81/12
f 5/82/7 17/83/7 80/84/7
f 163/85/5 93/86/5 95/87/5
f 31/88/12 36/89/12 35/90/12
f 43/91/13 111/92/13 37/93/13
f 46/94/14 119/95/14 39/96/14
f 45/97/15 123/98/15 40/99/15
f 44/100/16 127/101/16 41/102/16
f 13/103/7 42/104/7 14/105/7
f 246/106/17 292/107/17 175/108/17
f 210/109/2 239/110/2 214/111/2
f 228/112/2 261/113/2 225/114/2
f 287/115/7 273/116/7 247/117/7
f 291/118/18 249/7/3 274/9/2
f 293/119/5 171/12/5 165/11/5
f 216/120/2 240/14/2 224/121/2
f 278/122/7 298/123/7 295/124/7
f 212/125/6 231/16/6 218/18/6
f 244/126/5 177/127/5 209/128/5
f 275/129/12 223/130/12 211/131/12
f 191/132/8 306/133/8 316/134/8
f 222/135/2 264/29/2 148/136/2
f 139/31/2 259/137/2 217/138/2
f 215/139/2 254/140/2 220/141/2
f 284/142/2 308/143/2 326/144/2
f 153/145/7 188/146/7 152/147/7
f 313/148/6 268/40/6 266/42/6
f 279/44/5 158/149/5 276/150/5
f 184/46/6 307/151/6 309/152/6
f 172/153/7 164/154/7 226/155/7
f 208/156/5 288/157/5 206/158/5
f 245/159/5 173/160/5 243/161/5
f 144/57/8 241/162/8 302/163/8
f 238/164/8 237/165/8 178/166/8
f 162/63/8 277/167/8 303/168/8
f 156/169/8 289/170/8 234/171/8
f 136/172/2 281/173/2 301/174/2
f 236/175/2 182/176/2 135/177/2
f 183/178/2 296/75/2 282/179/2
f 169/77/10 232/180/19 235/181/20
f 280/182/7 170/183/7 176/184/7
f 133/185/12 147/186/12 253/187/12
f 186/188/7 154/189/7 187/190/7
f 283/191/5 163/85/5 285/192/5
f 194/193/7 189/194/7 193/195/7
f 311/196/21 201/197/21 195/198/21
f 319/199/22 204/200/22 197/201/22
f 323/202/23 203/203/23 198/204/23
f 327/205/24 202/206/24 199/207/24
f 200/208/12 150/209/12 151/210/12
f 76/1/1 22/211/1 100/2/1
f 52/4/2 56/212/2 71/5/2
f 249/7/3 79/213/25 99/8/4
f 58/13/2 224/121/2 240/14/2
f 231/16/6 61/214/6 54/17/6
f 24/19/5 98/215/5 74/20/5
f 47/216/7 49/217/7 87/24/7
f 49/217/7 53/218/7 87/24/7
f 53/218/7 63/22/7 87/24/7
f 272/219/8 260/220/8 34/26/8
f 260/220/8 85/221/8 34/26/8
f 85/221/8 128/27/8 34/26/8
f 128/27/8 124/222/8 33/25/8
f 124/222/8 120/223/8 33/25/8
f 120/223/8 116/224/8 33/25/8
f 116/224/8 115/225/8 306/133/8
f 115/225/8 269/226/8 306/133/8
f 306/133/8 33/25/8 116/224/8
f 62/28/2 148/136/2 264/29/2
f 139/31/2 59/227/2 86/32/2
f 57/34/2 60/228/2 81/35/2
f 83/229/2 265/230/2 108/231/2
f 265/230/2 304/232/2 108/231/2
f 122/233/2 126/234/2 94/37/2
f 126/234/2 83/229/2 108/231/2
f 94/37/2 126/234/2 108/231/2
f 110/39/2 118/235/2 94/37/2
f 118/235/2 122/233/2 94/37/2
f 267/236/2 112/237/2 270/38/2
f 112/237/2 110/39/2 270/38/2
f 268/40/6 114/238/6 113/41/6
f 16/43/5 157/239/5 279/44/5
f 184/46/6 109/240/6 107/47/6
f 96/49/5 103/241/5 50/50/5
f 21/52/5 19/242/5 75/53/5
f 144/57/8 242/243/8 105/55/8
f 242/243/8 102/244/8 105/55/8
f 70/60/8 10/245/8 25/58/8
f 10/245/8 26/246/8 25/58/8
f 162/63/8 299/247/8 106/61/8
f 299/247/8 27/248/8 106/61/8
f 15/66/8 18/249/8 66/64/8
f 18/249/8 28/250/8 66/64/8
f 91/67/2 55/251/2 7/68/2
f 6/70/2 29/252/2 68/71/2
f 68/71/2 297/253/2 138/72/2
f 64/76/9 174/254/5 169/77/10
f 20/79/12 65/255/12 90/80/12
f 17/83/7 11/256/7 80/84/7
f 80/84/7 12/257/7 4/258/7
f 4/258/7 5/82/7 80/84/7
f 163/85/5 271/259/5 93/86/5
f 31/88/12 32/260/12 36/89/12
f 43/91/13 117/261/13 111/92/13
f 46/94/14 121/262/14 119/95/14
f 45/97/15 125/263/15 123/98/15
f 44/100/16 129/264/16 127/101/16
f 13/103/7 38/265/7 42/104/7
f 246/106/17 250/266/17 292/107/17
f 210/109/2 141/267/2 239/110/2
f 228/112/2 263/268/2 261/113/2
f 247/117/7 230/269/7 227/270/7
f 287/115/7 286/271/7 273/116/7
f 247/117/7 227/270/7 287/115/7
f 291/118/18 252/272/25 249/7/3
f 216/120/2 142/273/2 240/14/2
f 295/124/7 219/274/7 278/122/7
f 219/274/7 229/275/7 278/122/7
f 229/275/7 248/276/7 278/122/7
f 212/125/6 221/277/6 231/16/6
f 244/126/5 290/278/5 177/127/5
f 211/131/12 207/279/12 275/129/12
f 207/279/12 205/280/12 275/129/12
f 275/129/12 251/281/12 223/130/12
f 258/282/8 260/220/8 192/283/8
f 260/220/8 272/219/8 192/283/8
f 324/284/8 328/285/8 191/132/8
f 328/285/8 258/282/8 192/283/8
f 191/132/8 328/285/8 192/283/8
f 316/134/8 320/286/8 191/132/8
f 320/286/8 324/284/8 191/132/8
f 269/226/8 315/287/8 306/133/8
f 315/287/8 316/134/8 306/133/8
f 222/135/2 255/288/2 264/29/2
f 139/31/2 262/33/2 259/137/2
f 215/139/2 257/289/2 254/140/2
f 256/290/2 326/144/2 308/143/2
f 326/144/2 322/291/2 284/142/2
f 322/291/2 318/292/2 284/142/2
f 318/292/2 310/293/2 284/142/2
f 310/293/2 312/294/2 270/38/2
f 312/294/2 267/236/2 270/38/2
f 270/38/2 284/142/2 310/293/2
f 308/143/2 304/232/2 265/230/2
f 308/143/2 265/230/2 256/290/2
f 153/145/7 185/295/7 188/146/7
f 313/148/6 314/296/6 268/40/6
f 279/44/5 157/239/5 158/149/5
f 184/46/6 305/48/6 307/151/6
f 172/153/7 166/297/7 164/154/7
f 208/156/5 300/298/5 288/157/5
f 245/159/5 168/299/5 173/160/5
f 294/300/8 242/243/8 302/163/8
f 242/243/8 144/57/8 302/163/8
f 179/301/8 145/302/8 178/166/8
f 145/302/8 238/164/8 178/166/8
f 180/303/8 299/247/8 303/168/8
f 299/247/8 162/63/8 303/168/8
f 181/304/8 161/305/8 234/171/8
f 161/305/8 156/169/8 234/171/8
f 136/172/2 213/306/2 281/173/2
f 135/177/2 138/72/2 236/175/2
f 138/72/2 297/253/2 236/175/2
f 169/77/10 174/254/5 232/180/19
f 280/182/7 233/307/7 170/183/7
f 253/187/12 146/308/12 159/309/12
f 159/309/12 134/310/12 253/187/12
f 134/310/12 133/185/12 253/187/12
f 186/188/7 155/311/7 154/189/7
f 283/191/5 271/259/5 163/85/5
f 194/193/7 190/312/7 189/194/7
f 311/196/21 317/313/21 201/197/21
f 319/199/22 321/314/22 204/200/22
f 323/202/23 325/315/23 203/203/23
f 327/205/24 329/316/24 202/206/24
f 200/208/12 196/317/12 150/209/12
l 167 143
l 140 137
l 160 149
